# xmcd
#
# Track frame offsets: 
#        150
#        20007
#        37065
#        56917
#        69808
#        83075
#        103143
#        121386
#        142326
#        163543
#        181065
#        195795
#        216407
#        231807
#        244254
#        271351
#
# Disc length: 4600 seconds
#
# Revision: 0
# Processed by: cddbd v1.5.2PL0 Copyright (c) Steve Scherf et al.
# Submitted via: ExactAudioCopyFreeDBPlugin 1.0
#
DISCID=e711f610
DTITLE=The Reverend Andrew James Gang - Get in the Ring
DYEAR=2016
DGENRE=Country
TTITLE0=Big Iron
TTITLE1=Dragula
TTITLE2=Ends
TTITLE3=Born To Be Wild
TTITLE4=Here Comes The Rain Again
TTITLE5=Whole Lotta Rosie
TTITLE6=If It Hadn’t Been For Love
TTITLE7=Radar Love
TTITLE8=I See Fire
TTITLE9=One Horse Town
TTITLE10=Paint It Black
TTITLE11=What It’s Like
TTITLE12=Remedy
TTITLE13=Secret Agent Man
TTITLE14=If Heaven
TTITLE15=Bonus: Video Remedy
EXTD=
EXTT0=
EXTT1=
EXTT2=
EXTT3=
EXTT4=
EXTT5=
EXTT6=
EXTT7=
EXTT8=
EXTT9=
EXTT10=
EXTT11=
EXTT12=
EXTT13=
EXTT14=
EXTT15=
PLAYORDER=
